<svg width="37" height="35" viewBox="0 0 37 35" fill="none" xmlns="http://www.w3.org/2000/svg">
<g filter="url(#filter0_d)">
<path fill-rule="evenodd" clip-rule="evenodd" d="M26.8618 18.4879C25.5712 18.4879 24.525 17.4446 24.525 16.1574C24.525 14.8704 25.5712 13.8272 26.8618 13.8272C28.1525 13.8272 29.1987 14.8704 29.1987 16.1574C29.1987 17.4446 28.1525 18.4879 26.8618 18.4879ZM18.5667 18.4879C17.2761 18.4879 16.2299 17.4446 16.2299 16.1574C16.2299 14.8704 17.2761 13.8272 18.5667 13.8272C19.8573 13.8272 20.9036 14.8704 20.9036 16.1574C20.9036 17.4446 19.8573 18.4879 18.5667 18.4879ZM10.2715 18.4879C8.98087 18.4879 7.93461 17.4446 7.93461 16.1574C7.93461 14.8704 8.98087 13.8272 10.2715 13.8272C11.5621 13.8272 12.6084 14.8704 12.6084 16.1574C12.6084 17.4446 11.5621 18.4879 10.2715 18.4879ZM36.066 14.9318C36.0642 14.4071 36.0351 13.9257 35.9807 13.485C35.1074 5.91433 27.6445 0 18.5667 0C8.90167 0 1.06667 6.704 1.06667 14.9736C1.06667 23.2431 8.90141 29.9468 18.566 29.9471V32.3002C18.566 33.5467 19.8681 34.3688 20.9971 33.8339C25.7417 31.5852 35.7964 25.6227 36.0596 15.3903C36.0606 15.3592 36.0611 15.3278 36.0619 15.2967C36.063 15.24 36.0655 15.184 36.066 15.1272C36.0664 15.0897 36.0659 15.0535 36.066 15.0163C36.066 15.002 36.0667 14.988 36.0667 14.9736C36.0667 14.9597 36.0661 14.9459 36.066 14.9318Z" fill="white" fill-opacity="0.9"/>
</g>
<defs>
<filter id="filter0_d" x="0.566666" y="0" width="36" height="35" filterUnits="userSpaceOnUse" color-interpolation-filters="sRGB">
<feFlood flood-opacity="0" result="BackgroundImageFix"/>
<feColorMatrix in="SourceAlpha" type="matrix" values="0 0 0 0 0 0 0 0 0 0 0 0 0 0 0 0 0 0 127 0" result="hardAlpha"/>
<feOffset dy="0.5"/>
<feGaussianBlur stdDeviation="0.25"/>
<feColorMatrix type="matrix" values="0 0 0 0 0 0 0 0 0 0 0 0 0 0 0 0 0 0 0.15 0"/>
<feBlend mode="normal" in2="BackgroundImageFix" result="effect1_dropShadow"/>
<feBlend mode="normal" in="SourceGraphic" in2="effect1_dropShadow" result="shape"/>
</filter>
</defs>
</svg>
