<svg width="20" height="21" viewBox="0 0 20 21" fill="none" xmlns="http://www.w3.org/2000/svg">
<path fill-rule="evenodd" clip-rule="evenodd" d="M17.9571 0.127991H1.79202C0.802319 0.127991 1.52588e-05 0.930295 1.52588e-05 1.91999V15.2392C1.52588e-05 16.2289 0.802319 17.0312 1.79202 17.0312H6.63246L8.37813 19.681C8.70977 20.1844 9.27221 20.4872 9.87458 20.4872H9.88494C10.4913 20.4836 11.0546 20.1737 11.3823 19.6636L13.0733 17.0312H17.9571C18.9468 17.0312 19.7491 16.2289 19.7491 15.2392V1.91999C19.7491 0.930295 18.9468 0.127991 17.9571 0.127991ZM17.9571 1.91999V15.2392H12.0945L9.87458 18.6952L7.59784 15.2392H1.79202V1.91999H17.9571Z" fill="#BFBFBF"/>
<path fill-rule="evenodd" clip-rule="evenodd" d="M13.6356 10.3076H6.11346C5.91314 10.3076 5.75071 10.1451 5.75071 9.94481V8.32254C5.75071 8.12209 5.91314 7.95966 6.11346 7.95966H13.6356C13.8361 7.95966 13.9985 8.12209 13.9985 8.32254V9.94481C13.9985 10.1451 13.8361 10.3076 13.6356 10.3076Z" fill="#BFBFBF"/>
</svg>
