<svg width="19" height="21" viewBox="0 0 19 21" fill="none" xmlns="http://www.w3.org/2000/svg">
<path fill-rule="evenodd" clip-rule="evenodd" d="M9.03662 6.10352e-05C5.94324 6.10352e-05 3.42664 2.51667 3.42664 5.61004C3.42664 8.70329 5.94324 11.2199 9.03662 11.2199C12.13 11.2199 14.6466 8.70329 14.6466 5.61004C14.6466 2.51667 12.13 6.10352e-05 9.03662 6.10352e-05ZM9.03662 1.79206C11.1452 1.79206 12.8546 3.50137 12.8546 5.61005C12.8546 7.71859 11.1452 9.4279 9.03662 9.4279C6.92808 9.4279 5.21864 7.71859 5.21864 5.61005C5.21864 3.50137 6.92808 1.79206 9.03662 1.79206Z" fill="#BFBFBF"/>
<path fill-rule="evenodd" clip-rule="evenodd" d="M18.0596 19.8124C17.6724 17.6048 16.6123 15.7813 14.994 14.5393C13.4286 13.3379 11.3687 12.7029 9.03665 12.7029C6.70474 12.7029 4.64459 13.3379 3.07914 14.5393C1.46084 15.7813 0.400873 17.6048 0.0136729 19.8124C-0.0718311 20.2998 0.253929 20.7642 0.741353 20.8497C0.793705 20.8589 0.845801 20.8633 0.897129 20.8633C1.32414 20.8633 1.70238 20.557 1.77866 20.1219C2.40586 16.5458 5.05124 14.4949 9.03665 14.4949C13.0221 14.4949 15.6674 16.5458 16.2946 20.1219C16.3709 20.557 16.749 20.8633 17.176 20.8633C17.2275 20.8633 17.2796 20.8589 17.3319 20.8497C17.8194 20.7642 18.1451 20.2998 18.0596 19.8124Z" fill="#BFBFBF"/>
</svg>
