<svg width="13" height="13" viewBox="0 0 13 13" fill="none" xmlns="http://www.w3.org/2000/svg">
<path fill-rule="evenodd" clip-rule="evenodd" d="M12.9597 9.78448C12.9736 9.7243 12.9828 9.6623 12.981 9.59756L12.7488 1.70726L12.7438 0.312503C12.7432 0.117537 12.5696 -0.029511 12.3808 0.00505619L3.9252 1.55016C3.77398 1.57759 3.66791 1.71037 3.66612 1.86108C3.66146 1.88559 3.65877 1.91119 3.65895 1.93735L3.69102 9.39052C3.37641 9.30145 3.03259 9.25243 2.67192 9.25408C1.19183 9.26066 -0.00428844 10.1045 1.15575e-05 11.1388C0.00449072 12.1735 1.20795 13.0065 2.68787 13C4.16797 12.9934 5.36408 12.1495 5.35978 11.1149C5.35925 10.9956 5.34097 10.8795 5.30997 10.7664L5.27665 2.99796L11.144 2.01874L11.3309 8.36612C11.0164 8.27742 10.6726 8.22822 10.3121 8.23005C8.83203 8.23663 7.63592 9.08033 7.6404 10.115C7.64487 11.1492 8.84816 11.9825 10.3281 11.9757C11.8082 11.9692 13.0045 11.1253 13 10.091C12.9994 9.98639 12.9837 9.88434 12.9597 9.78448Z" fill="white"/>
</svg>
