<svg width="38" height="28" viewBox="0 0 38 28" fill="none" xmlns="http://www.w3.org/2000/svg">
<g filter="url(#filter0_d)">
<path fill-rule="evenodd" clip-rule="evenodd" d="M23.0457 0.438294C22.9767 0.370842 22.9031 0.310201 22.8263 0.256239C21.8733 -0.411866 20.5409 0.310463 20.5409 1.45466V6.33362C18.7812 6.30127 17.0001 6.43473 15.281 6.71227C6.42373 8.14278 2.25741 16.724 1.17962 24.5539C1.10355 25.1059 0.987709 25.7772 1.14481 26.3253C1.22235 26.5964 1.42273 26.8521 1.70333 26.9181C1.84162 26.9506 1.97493 26.9354 2.10004 26.8874C2.39194 26.7756 2.63881 26.4844 2.79645 26.1999C4.43169 23.2497 7.67476 21.7249 10.9443 21.1613C11.8365 21.0076 20.5409 20.7379 20.5409 20.9161V25.5455C20.5409 26.6895 21.8733 27.4119 22.8263 26.7438C22.9031 26.6897 22.9767 26.6292 23.0457 26.5617L36.5479 14.7208C37.2396 14.0465 37.2396 12.9534 36.5479 12.2794L23.0457 0.438294Z" fill="white" fill-opacity="0.9"/>
</g>
<defs>
<filter id="filter0_d" x="0.566666" y="0" width="37" height="28" filterUnits="userSpaceOnUse" color-interpolation-filters="sRGB">
<feFlood flood-opacity="0" result="BackgroundImageFix"/>
<feColorMatrix in="SourceAlpha" type="matrix" values="0 0 0 0 0 0 0 0 0 0 0 0 0 0 0 0 0 0 127 0" result="hardAlpha"/>
<feOffset dy="0.5"/>
<feGaussianBlur stdDeviation="0.25"/>
<feColorMatrix type="matrix" values="0 0 0 0 0 0 0 0 0 0 0 0 0 0 0 0 0 0 0.15 0"/>
<feBlend mode="normal" in2="BackgroundImageFix" result="effect1_dropShadow"/>
<feBlend mode="normal" in="SourceGraphic" in2="effect1_dropShadow" result="shape"/>
</filter>
</defs>
</svg>
