<svg width="43" height="27" viewBox="0 0 43 27" fill="none" xmlns="http://www.w3.org/2000/svg">
<rect x="7" width="36" height="27" rx="8" fill="#E5436D"/>
<rect width="36" height="27" rx="8" fill="#65D1E8"/>
<rect x="3.5" width="36" height="27" rx="8" fill="white"/>
<path fill-rule="evenodd" clip-rule="evenodd" d="M20.75 7C20.4739 7 20.25 7.22386 20.25 7.5V12.25H15.5C15.2239 12.25 15 12.4739 15 12.75V14.25C15 14.5261 15.2239 14.75 15.5 14.75H20.25V19.5C20.25 19.7761 20.4739 20 20.75 20H22.25C22.5261 20 22.75 19.7761 22.75 19.5V14.75H27.5C27.7761 14.75 28 14.5261 28 14.25V12.75C28 12.4739 27.7761 12.25 27.5 12.25H22.75V7.5C22.75 7.22386 22.5261 7 22.25 7H20.75Z" fill="#161822"/>
</svg>
